<?xml version="1.0" encoding="UTF-8"?>
<!DOCTYPE svg PUBLIC "-//W3C//DTD SVG 1.1//EN" "http://www.w3.org/Graphics/SVG/1.1/DTD/svg11.dtd">
<svg xmlns="http://www.w3.org/2000/svg" version="1.1" width="100px" height="100px" style="shape-rendering:geometricPrecision; text-rendering:geometricPrecision; image-rendering:optimizeQuality; fill-rule:evenodd; clip-rule:evenodd" xmlns:xlink="http://www.w3.org/1999/xlink">
<g><path style="opacity:0.648" fill="#000000" d="M 42.5,8.5 C 49.2569,8.12256 55.9236,8.62256 62.5,10C 69.1556,13.0495 74.8222,17.0495 79.5,22C 79.2945,23.8652 78.6278,25.5319 77.5,27C 78.7131,28.6303 79.5464,30.4636 80,32.5C 80.1767,39.4154 80.3434,46.2488 80.5,53C 80.2928,58.1302 78.6261,62.6302 75.5,66.5C 71.9446,84.5314 60.9446,92.3647 42.5,90C 31.4376,85.7909 25.1042,77.9576 23.5,66.5C 21.1574,64.0046 19.6574,61.0046 19,57.5C 18.8414,48.2313 18.8414,38.898 19,29.5C 20.3957,25.2076 22.8957,21.7076 26.5,19C 29.4628,17.0394 32.1294,14.706 34.5,12C 37.3093,10.9066 39.976,9.73993 42.5,8.5 Z M 50.5,10.5 C 54.1602,11.1926 57.8269,12.026 61.5,13C 66.5,16 71.5,19 76.5,22C 74.8757,23.1171 73.8757,24.6171 73.5,26.5C 77.6873,33.0678 78.5206,40.0678 76,47.5C 74.6304,41.6901 72.7971,36.0234 70.5,30.5C 69.6667,30.1667 68.8333,29.8333 68,29.5C 55.9119,35.1078 44.5786,33.7745 34,25.5C 28.758,32.5206 25.4247,40.5206 24,49.5C 20.1247,40.4153 20.7914,31.7486 26,23.5C 27.1545,22.2567 28.4878,21.2567 30,20.5C 32.7625,25.7865 33.5958,25.4532 32.5,19.5C 32.5288,17.9707 33.1955,16.804 34.5,16C 39.5861,13.028 44.9194,11.1947 50.5,10.5 Z M 33.5,30.5 C 42.2503,35.2074 51.5836,36.7074 61.5,35C 63.7619,34.3581 65.9285,33.5248 68,32.5C 70.6827,39.2443 72.3494,46.2443 73,53.5C 74.7141,54.9255 76.0475,54.5922 77,52.5C 77.6667,53.8333 77.6667,55.1667 77,56.5C 73.7595,62.4519 71.4262,68.7852 70,75.5C 58.7016,89.8859 46.035,91.2192 32,79.5C 28.0633,75.2907 26.0633,70.2907 26,64.5C 22.8538,60.7278 21.5205,56.3945 22,51.5C 22.8793,54.3463 24.5459,55.013 27,53.5C 27.8522,45.4457 30.0188,37.7791 33.5,30.5 Z"/></g>
<g><path style="opacity:0.471" fill="#000000" d="M 43.5,13.5 C 48.5111,13.3341 53.5111,13.5007 58.5,14C 59.3081,14.3076 59.9747,14.8076 60.5,15.5C 54.956,15.4978 49.2894,15.6645 43.5,16C 41.1667,17.1667 38.8333,18.3333 36.5,19.5C 35.4063,18.132 35.7397,16.9653 37.5,16C 39.7226,15.4338 41.7226,14.6005 43.5,13.5 Z"/></g>
<g><path style="opacity:0.393" fill="#000000" d="M 63.5,16.5 C 65.7029,17.0516 66.5362,18.3849 66,20.5C 64.2942,19.6921 63.4609,18.3588 63.5,16.5 Z"/></g>
<g><path style="opacity:0.386" fill="#000000" d="M 67.5,19.5 C 69.2252,19.8425 69.7252,20.8425 69,22.5C 67.9614,21.7562 67.4614,20.7562 67.5,19.5 Z"/></g>
<g><path style="opacity:0.498" fill="#000000" d="M 38.5,24.5 C 45.8183,28.2996 53.4849,29.9662 61.5,29.5C 53.9038,31.2348 46.5705,30.5681 39.5,27.5C 38.6143,26.675 38.281,25.675 38.5,24.5 Z"/></g>
<g><path style="opacity:0.625" fill="#000000" d="M 32.5,41.5 C 37.1667,41.5 41.8333,41.5 46.5,41.5C 46.5,42.5 46.5,43.5 46.5,44.5C 41.8333,44.5 37.1667,44.5 32.5,44.5C 32.5,43.5 32.5,42.5 32.5,41.5 Z"/></g>
<g><path style="opacity:0.625" fill="#000000" d="M 52.5,41.5 C 57.1667,41.5 61.8333,41.5 66.5,41.5C 66.5,42.5 66.5,43.5 66.5,44.5C 61.8333,44.5 57.1667,44.5 52.5,44.5C 52.5,43.5 52.5,42.5 52.5,41.5 Z"/></g>
<g><path style="opacity:0.7" fill="#000000" d="M 36.5,47.5 C 38.1439,47.2865 39.6439,47.6198 41,48.5C 41.7581,50.7695 41.5914,52.9361 40.5,55C 38.8876,55.7203 37.3876,55.5536 36,54.5C 35.2967,52.0709 35.4634,49.7375 36.5,47.5 Z"/></g>
<g><path style="opacity:0.7" fill="#000000" d="M 58.5,47.5 C 60.1439,47.2865 61.6439,47.6198 63,48.5C 63.7581,50.7695 63.5914,52.9361 62.5,55C 60.8876,55.7203 59.3876,55.5536 58,54.5C 57.2967,52.0709 57.4634,49.7375 58.5,47.5 Z"/></g>
<g><path style="opacity:0.484" fill="#000000" d="M 44.5,67.5 C 47.9414,68.4385 51.2747,68.7719 54.5,68.5C 54.2907,69.086 53.9574,69.586 53.5,70C 50.8333,70.6667 48.1667,70.6667 45.5,70C 44.7476,69.3292 44.4142,68.4959 44.5,67.5 Z"/></g>
<g><path style="opacity:0.595" fill="#000000" d="M 37.5,74.5 C 45.0013,77.0954 52.5013,77.0954 60,74.5C 60.5,74.8333 61,75.1667 61.5,75.5C 58.28,78.8925 54.28,80.2258 49.5,79.5C 45.5505,79.7931 41.8838,78.9598 38.5,77C 37.7476,76.3292 37.4142,75.4959 37.5,74.5 Z"/></g>
</svg>
